<svg width="24" height="24" viewBox="0 0 24 24" fill="none" xmlns="http://www.w3.org/2000/svg">
	<path d="M8.20597 18V6.36364H12.2741C13.0848 6.36364 13.7533 6.50379 14.2798 6.78409C14.8063 7.06061 15.1984 7.43371 15.456 7.90341C15.7135 8.36932 15.8423 8.88636 15.8423 9.45455C15.8423 9.95455 15.7533 10.3674 15.5753 10.6932C15.401 11.0189 15.17 11.2765 14.8821 11.4659C14.598 11.6553 14.2893 11.7955 13.956 11.8864V12C14.312 12.0227 14.67 12.1477 15.0298 12.375C15.3897 12.6023 15.6908 12.928 15.9332 13.3523C16.1757 13.7765 16.2969 14.2955 16.2969 14.9091C16.2969 15.4924 16.1643 16.017 15.8991 16.483C15.634 16.9489 15.2154 17.3182 14.6435 17.5909C14.0715 17.8636 13.3272 18 12.4105 18H8.20597ZM9.61506 16.75H12.4105C13.331 16.75 13.9844 16.572 14.3707 16.2159C14.7609 15.8561 14.956 15.4205 14.956 14.9091C14.956 14.5152 14.8556 14.1515 14.6548 13.8182C14.4541 13.4811 14.1681 13.2121 13.7969 13.0114C13.4257 12.8068 12.9863 12.7045 12.4787 12.7045H9.61506V16.75ZM9.61506 11.4773H12.2287C12.6529 11.4773 13.0355 11.3939 13.3764 11.2273C13.7211 11.0606 13.9938 10.8258 14.1946 10.5227C14.3991 10.2197 14.5014 9.86364 14.5014 9.45455C14.5014 8.94318 14.3234 8.50947 13.9673 8.15341C13.6113 7.79356 13.0469 7.61364 12.2741 7.61364H9.61506V11.4773Z" />
</svg>
