<svg width="24" height="24" viewBox="0 0 24 24" fill="none" xmlns="http://www.w3.org/2000/svg">
	<path d="M3.8544 18V6.36364H5.26349V11.5455H11.468V6.36364H12.8771V18H11.468V12.7955H5.26349V18H3.8544ZM15.1925 18V17.233L18.0732 14.0795C18.4112 13.7102 18.6896 13.3892 18.9084 13.1165C19.1271 12.8409 19.2891 12.5824 19.3942 12.3409C19.5021 12.0966 19.5561 11.8409 19.5561 11.5739C19.5561 11.267 19.4822 11.0014 19.3345 10.777C19.1896 10.5526 18.9908 10.3793 18.7379 10.2571C18.4851 10.1349 18.201 10.0739 17.8857 10.0739C17.5504 10.0739 17.2578 10.1435 17.0078 10.2827C16.7607 10.419 16.5689 10.6108 16.4325 10.858C16.299 11.1051 16.2322 11.3949 16.2322 11.7273H15.2266C15.2266 11.2159 15.3445 10.767 15.5803 10.3807C15.8161 9.99432 16.1371 9.69318 16.5433 9.47727C16.9524 9.26136 17.4112 9.15341 17.9197 9.15341C18.4311 9.15341 18.8842 9.26136 19.2791 9.47727C19.674 9.69318 19.9837 9.98437 20.2081 10.3509C20.4325 10.7173 20.5447 11.125 20.5447 11.5739C20.5447 11.8949 20.4865 12.2088 20.37 12.5156C20.2564 12.8196 20.0575 13.1591 19.7734 13.5341C19.4922 13.9062 19.1016 14.3608 18.6016 14.8977L16.6413 16.9943V17.0625H20.6982V18H15.1925Z" />
</svg>
