<svg width="24" height="24" viewBox="0 0 24 24" fill="none" xmlns="http://www.w3.org/2000/svg">
	<path d="M4.30362 18V6.36364H5.71271V11.5455H11.9173V6.36364H13.3264V18H11.9173V12.7955H5.71271V18H4.30362ZM17.9485 18.0994C17.4798 18.0994 17.0619 18.0189 16.695 17.858C16.3304 17.697 16.0404 17.4732 15.8249 17.1868C15.6119 16.898 15.4959 16.563 15.4769 16.1818H16.3718C16.3907 16.4162 16.4712 16.6186 16.6133 16.7891C16.7553 16.9571 16.9412 17.0874 17.1708 17.1797C17.4004 17.272 17.6549 17.3182 17.9343 17.3182C18.2468 17.3182 18.5238 17.2637 18.7653 17.1548C19.0067 17.0459 19.1961 16.8944 19.3335 16.7003C19.4708 16.5062 19.5394 16.2812 19.5394 16.0256C19.5394 15.758 19.4731 15.5225 19.3406 15.3189C19.208 15.1129 19.0138 14.9519 18.7582 14.8359C18.5025 14.7199 18.19 14.6619 17.8207 14.6619H17.2383V13.8807H17.8207C18.1095 13.8807 18.3628 13.8286 18.5806 13.7244C18.8008 13.6203 18.9724 13.4735 19.0955 13.2841C19.221 13.0947 19.2837 12.8722 19.2837 12.6165C19.2837 12.3703 19.2293 12.156 19.1204 11.9737C19.0115 11.7914 18.8576 11.6494 18.6587 11.5476C18.4622 11.4458 18.2302 11.3949 17.9627 11.3949C17.7118 11.3949 17.475 11.4411 17.2525 11.5334C17.0323 11.6233 16.8524 11.7547 16.7127 11.9276C16.573 12.098 16.4973 12.304 16.4854 12.5455H15.6332C15.6474 12.1643 15.7622 11.8305 15.9776 11.544C16.1931 11.2552 16.4748 11.0303 16.8228 10.8693C17.1732 10.7083 17.5579 10.6278 17.9769 10.6278C18.4267 10.6278 18.8126 10.719 19.1346 10.9013C19.4566 11.0812 19.704 11.3191 19.8768 11.6151C20.0496 11.911 20.136 12.2306 20.136 12.5739C20.136 12.9834 20.0283 13.3326 19.8129 13.6214C19.5998 13.9103 19.3098 14.1103 18.9428 14.2216V14.2784C19.4021 14.3542 19.7608 14.5495 20.0188 14.8643C20.2769 15.1768 20.4059 15.5639 20.4059 16.0256C20.4059 16.4209 20.2982 16.776 20.0827 17.0909C19.8697 17.4034 19.5785 17.6496 19.2092 17.8295C18.8398 18.0095 18.4196 18.0994 17.9485 18.0994Z" />
</svg>
