<svg width="24" height="24" viewBox="0 0 24 24" fill="none" xmlns="http://www.w3.org/2000/svg">
	<path fill-rule="evenodd" clip-rule="evenodd" d="M12 18.5C12.8728 18.5 13.7054 18.328 14.4658 18.016L14.4147 18.2257L12.3725 19.9915C12.2491 19.9971 12.1249 20 12 20C7.58172 20 4 16.4183 4 12C4 7.58172 7.58172 4 12 4C16.4183 4 20 7.58172 20 12C20 14.5928 18.7665 16.8976 16.8543 18.3594L16.7397 18.2268L18.121 14.1924C18.1414 14.1354 18.161 14.078 18.1799 14.0203L18.2961 13.6811L18.2818 13.6762C18.4241 13.1414 18.5 12.5796 18.5 12C18.5 8.41015 15.5899 5.5 12 5.5C8.41015 5.5 5.5 8.41015 5.5 12C5.5 15.5899 8.41015 18.5 12 18.5Z" />
</svg>
