<svg width="24" height="24" viewBox="0 0 24 24" fill="none" xmlns="http://www.w3.org/2000/svg">
	<path d="M8.33097 18V6.36364H12.2628C13.1757 6.36364 13.9219 6.52841 14.5014 6.85795C15.0848 7.18371 15.5166 7.625 15.7969 8.18182C16.0772 8.73864 16.2173 9.35985 16.2173 10.0455C16.2173 10.7311 16.0772 11.3542 15.7969 11.9148C15.5204 12.4754 15.0923 12.9223 14.5128 13.2557C13.9332 13.5852 13.1908 13.75 12.2855 13.75H9.46733V12.5H12.2401C12.8651 12.5 13.367 12.392 13.7457 12.1761C14.1245 11.9602 14.3991 11.6686 14.5696 11.3011C14.7438 10.9299 14.831 10.5114 14.831 10.0455C14.831 9.57955 14.7438 9.16288 14.5696 8.79545C14.3991 8.42803 14.1226 8.14015 13.7401 7.93182C13.3575 7.7197 12.8499 7.61364 12.2173 7.61364H9.74006V18H8.33097Z" />
</svg>
