<svg width="24" height="24" viewBox="0 0 24 24" fill="none" xmlns="http://www.w3.org/2000/svg">
	<path d="M14.6712 9.27273C14.603 8.69697 14.3265 8.25 13.8416 7.93182C13.3568 7.61364 12.7621 7.45455 12.0575 7.45455C11.5424 7.45455 11.0916 7.53788 10.7053 7.70455C10.3227 7.87121 10.0234 8.10038 9.80753 8.39205C9.59541 8.68371 9.48935 9.01515 9.48935 9.38636C9.48935 9.69697 9.56321 9.96401 9.71094 10.1875C9.86245 10.4072 10.0556 10.5909 10.2905 10.7386C10.5253 10.8826 10.7715 11.0019 11.0291 11.0966C11.2867 11.1875 11.5234 11.2614 11.7393 11.3182L12.9212 11.6364C13.2242 11.7159 13.5613 11.8258 13.9325 11.9659C14.3075 12.1061 14.6655 12.2973 15.0064 12.5398C15.3511 12.7784 15.6352 13.0852 15.8587 13.4602C16.0822 13.8352 16.1939 14.2955 16.1939 14.8409C16.1939 15.4697 16.0291 16.0379 15.6996 16.5455C15.3738 17.053 14.8965 17.4564 14.2678 17.7557C13.6428 18.0549 12.8833 18.2045 11.9893 18.2045C11.156 18.2045 10.4344 18.0701 9.82457 17.8011C9.21851 17.5322 8.74124 17.1572 8.39276 16.6761C8.04806 16.1951 7.85298 15.6364 7.80753 15H9.26207C9.29995 15.4394 9.44768 15.803 9.70526 16.0909C9.96662 16.375 10.2962 16.5871 10.6939 16.7273C11.0954 16.8636 11.5272 16.9318 11.9893 16.9318C12.5272 16.9318 13.0102 16.8447 13.4382 16.6705C13.8662 16.4924 14.2053 16.2462 14.4553 15.9318C14.7053 15.6136 14.8303 15.2424 14.8303 14.8182C14.8303 14.4318 14.7223 14.1174 14.5064 13.875C14.2905 13.6326 14.0064 13.4356 13.6541 13.2841C13.3018 13.1326 12.9212 13 12.5121 12.8864L11.0803 12.4773C10.1712 12.2159 9.45147 11.8428 8.92116 11.358C8.39086 10.8731 8.12571 10.2386 8.12571 9.45455C8.12571 8.80303 8.30185 8.23485 8.65412 7.75C9.01018 7.26136 9.48745 6.88258 10.0859 6.61364C10.6882 6.34091 11.3606 6.20455 12.103 6.20455C12.853 6.20455 13.5196 6.33901 14.103 6.60795C14.6863 6.87311 15.1484 7.23674 15.4893 7.69886C15.834 8.16098 16.0159 8.68561 16.0348 9.27273H14.6712Z" />
</svg>
