<svg width="24" height="24" viewBox="0 0 24 24" fill="none" xmlns="http://www.w3.org/2000/svg">
	<path d="M15.1158 6.36364H16.5249V14.0682C16.5249 14.8636 16.3374 15.5739 15.9624 16.1989C15.5911 16.8201 15.0665 17.3106 14.3885 17.6705C13.7105 18.0265 12.915 18.2045 12.0021 18.2045C11.0893 18.2045 10.2938 18.0265 9.61577 17.6705C8.93774 17.3106 8.41122 16.8201 8.03622 16.1989C7.66501 15.5739 7.4794 14.8636 7.4794 14.0682V6.36364H8.88849V13.9545C8.88849 14.5227 9.01349 15.0284 9.26349 15.4716C9.51349 15.911 9.86956 16.2576 10.3317 16.5114C10.7976 16.7614 11.3544 16.8864 12.0021 16.8864C12.6499 16.8864 13.2067 16.7614 13.6726 16.5114C14.1385 16.2576 14.4946 15.911 14.7408 15.4716C14.9908 15.0284 15.1158 14.5227 15.1158 13.9545V6.36364Z" />
</svg>
