<svg width="24" height="24" viewBox="0 0 24 24" fill="none" xmlns="http://www.w3.org/2000/svg">
	<path fill-rule="evenodd" clip-rule="evenodd" d="M12 12C13.6568 12 15 10.6569 15 9C15 7.34315 13.6568 6 12 6C10.3431 6 8.99999 7.34315 8.99999 9C8.99999 10.6569 10.3431 12 12 12ZM14.3479 12.2388C14.2802 12.2879 14.2941 12.3959 14.3726 12.4248C16.8351 13.3316 18.7884 15.6128 19.5966 18.5132C19.6656 18.7608 19.4751 19 19.2181 19H19.0069C18.8237 19 18.6647 18.875 18.6142 18.6989C17.6415 15.3054 14.955 13 12 13C9.04502 13 6.35855 15.3054 5.38585 18.6989C5.33535 18.875 5.17635 19 4.99308 19H4.78191C4.52494 19 4.33441 18.7608 4.40339 18.5132C5.21164 15.6128 7.16493 13.3316 9.62736 12.4248C9.70588 12.3959 9.7198 12.2879 9.65209 12.2388C8.65096 11.5118 7.99999 10.3319 7.99999 9C7.99999 6.79086 9.79085 5 12 5C14.2091 5 16 6.79086 16 9C16 10.3319 15.349 11.5118 14.3479 12.2388Z" />
</svg>
